<svg xmlns="http://www.w3.org/2000/svg" viewBox="0 0 738.59 407.88"><defs><style>.cls-1{font-size:36px;font-family:SegoeUI, Segoe UI;}.cls-1,.cls-5,.cls-6{fill:#1b2f59;}.cls-2{letter-spacing:-0.02em;}.cls-3{letter-spacing:-0.04em;}.cls-4{fill:#00a0e2;}.cls-5,.cls-8{fill-rule:evenodd;}.cls-7,.cls-8{fill:#fff;}</style></defs><title>Anka_logo</title><g id="Layer_2" data-name="Layer 2"><text class="cls-1" transform="translate(381.47 393.08)">HA<tspan class="cls-2" x="48.78" y="0">A</tspan><tspan x="71.3" y="0">CHT - AARSCH</tspan><tspan class="cls-3" x="307.07" y="0">O</tspan><tspan x="332.6" y="0">T</tspan></text></g><g id="Layer_1" data-name="Layer 1"><path class="cls-4" d="M401.29,397.19a200.67,200.67,0,0,1-259.13.58" transform="translate(-69.71 -38.92)"/><path class="cls-4" d="M84.12,317.41a203.61,203.61,0,0,1-14.41-75.5c0-112.11,90.29-203,201.67-203S473,129.8,473,241.92a203.62,203.62,0,0,1-14.51,75.74" transform="translate(-69.71 -38.92)"/><path class="cls-5" d="M686.49,205.9l-19.67,40h39.83l-20.17-40m-383.83-.17-19.67,40h39.83ZM219.27,317.57h28.08l22.5-45.42h65.35l22.56,45.56,52.46,0V216.78L522.68,317.7h5.25l0-68.08h15l59,68.12,31.09,0,22.13-45h63.5l22.33,45h29.88L686.77,149.4l-71.33,142-48.17-55.69L639,151.26H602.94l-60.72,70.46H528l0-70.48-27.83,0L500,254.05,382.51,149l.08,161.16-79.85-159-47.87,94.7h-24V272h11Z" transform="translate(-69.71 -38.92)"/><polyline class="cls-6" points="16.11 282.3 702.37 282.61 738.59 354.36 69.05 354.24 16.11 282.3"/><path class="cls-6" d="M138.77,393.15c-10.77-10.65-21.54-21.3-30.36-33.29s-15.69-25.3-22.56-38.62L116.18,356l22.6,37.13" transform="translate(-69.71 -38.92)"/><polyline class="cls-7" points="464.55 299.06 472.63 299.06 472.63 332.06 497.38 332.06 497.38 340.39 464.55 340.39 464.55 299.06"/><path class="cls-8" d="M425.86,372.8a22.11,22.11,0,0,1-15.76,6.49c-12,0-21.67-9.25-21.67-20.67S398.13,338,410.1,338a20.62,20.62,0,0,1,15.21,6.38l-4.89,4.86a13.42,13.42,0,0,0-9.49-3.91c-7.41,0-14.25,6.14-14.25,13.5S403.52,372,410.93,372a13.42,13.42,0,0,0,9.49-3.9l5.44,4.75" transform="translate(-69.71 -38.92)"/><polyline class="cls-7" points="219.72 299.04 254.47 299.04 254.47 306.42 228.22 306.42 228.22 315.67 238.85 315.67 238.85 323.29 228.22 323.29 228.22 340.54 219.72 340.54 219.72 299.04"/><polyline class="cls-7" points="261.66 299.04 296.41 299.04 296.41 306.42 270.16 306.42 270.16 315.67 280.79 315.67 280.79 323.29 270.16 323.29 270.16 340.54 261.66 340.54 261.66 299.04"/><polyline class="cls-7" points="304.1 299.17 312.1 299.17 312.1 340.54 304.1 340.54 304.1 299.17"/><polyline class="cls-7" points="364.1 340.48 364.1 299.17 398.85 299.17 398.85 306.51 372.6 306.51 372.6 315.71 383.22 315.71 383.22 323.31 372.6 323.31 372.6 332.14 398.35 332.1 398.29 340.48 364.1 340.48"/><polyline class="cls-7" points="464.47 299.1 472.85 299.1 472.85 331.73 497.6 331.73 497.6 340.35 464.47 340.35 464.47 299.1"/><polyline class="cls-7" points="551.14 340.42 551.14 299.1 579.08 322.33 579.08 299.08 586.66 299.08 586.66 340.42 558.83 316.83 558.83 340.42 551.14 340.42"/><polyline class="cls-7" points="595.16 340.4 595.16 299.09 629.91 299.09 629.91 306.43 603.66 306.43 603.66 315.64 614.29 315.64 614.29 323.23 603.66 323.23 603.66 332.07 629.41 332.03 629.35 340.4 595.16 340.4"/><polyline class="cls-7" points="637.5 299.08 672.91 299.06 672.91 306.81 659.29 306.81 659.25 340.46 651.62 340.46 651.66 306.75 637.47 306.75 637.5 299.08"/><path class="cls-7" d="M501,354.39c.08.17,15.45.08,15.93.08s3-1.37,3-4.69a4.32,4.32,0,0,0-3-4.31H501v8.92m-7.5-16.5h25.83c1.08,0,8.75,2.67,8.75,11.58s-6.92,12.58-8.25,12.58h-18.5v17.25H493.5Z" transform="translate(-69.71 -38.92)"/><path class="cls-7" d="M261.6,345.29c-7.41,0-14.25,6.14-14.25,13.5S254.19,372,261.6,372a13.33,13.33,0,1,0,0-26.67m-.83-7.33c12,0,21.67,9.25,21.67,20.67s-9.7,20.67-21.67,20.67S239.1,370,239.1,358.62,248.8,338,260.77,338Z" transform="translate(-69.71 -38.92)"/><path class="cls-7" d="M590.1,360.33H597l-3.5-7.31-3.37,7.31m16.58,18.94-6-11.12h-14l-5.62,11.13h-8.75L593.68,338l21.5,41.25Z" transform="translate(-69.71 -38.92)"/></g></svg>